<svg width="431" height="89" viewBox="0 0 431 89" fill="none" xmlns="http://www.w3.org/2000/svg">
<g clip-path="url(#clip0_3_12)">
<path d="M43.2 0.375L29.3 14.275C28.1 15.475 27.4 17.075 27.4 18.775C27.4 20.475 28.1 22.075 29.3 23.275L43.2 37.275C43.5 37.575 43.9 37.675 44.3 37.675C44.7 37.675 45.1 37.475 45.4 37.275L59.3 23.375C61.8 20.875 61.8 16.775 59.3 14.275L45.4 0.375C44.8 -0.125 43.8 -0.125 43.2 0.375ZM37.8 44.275C37.8 43.875 37.6 43.475 37.4 43.175L23.4 29.275C20.9 26.775 16.8 26.775 14.3 29.275L0.4 43.175C0.1 43.475 0 43.875 0 44.275C0 44.675 0.2 45.075 0.4 45.375L14.3 59.275C15.5 60.475 17.1 61.175 18.8 61.175C20.5 61.175 22.1 60.475 23.3 59.275L37.3 45.375C37.6 45.075 37.8 44.675 37.8 44.275ZM74.3 29.275C71.8 26.775 67.7 26.775 65.2 29.275L51.3 43.175C51 43.475 50.9 43.875 50.9 44.275C50.9 44.675 51.1 45.075 51.3 45.375L65.2 59.275C66.4 60.475 68 61.175 69.7 61.175C71.4 61.175 73 60.475 74.2 59.275L88.1 45.375C88.7 44.775 88.7 43.875 88.1 43.275L74.3 29.275ZM45.4 51.275C44.8 50.675 43.9 50.675 43.3 51.275L29.3 65.175C26.8 67.675 26.8 71.775 29.3 74.275L43.2 88.175C43.5 88.475 43.9 88.575 44.3 88.575C44.7 88.575 45.1 88.475 45.4 88.175L59.3 74.275C61.8 71.775 61.8 67.675 59.3 65.175L45.4 51.275Z" fill="url(#paint0_linear_3_12)"/>
</g>
<g clip-path="url(#clip1_3_12)">
<path d="M114 60.58V60.73H122.97V60.58C122.82 60.05 122.67 59.4 122.53 58.63C122.4 57.85 122.28 56.89 122.2 55.74C122.11 54.59 122.03 53.22 121.97 51.63C121.91 50.04 121.88 48.18 121.88 46.05V21.62C121.88 19.49 121.91 17.63 121.97 16.04C122.03 14.46 122.11 13.08 122.2 11.92C122.28 10.75 122.4 9.78 122.53 9.01C122.67 8.23 122.82 7.58 122.97 7.06V6.9H114V7.06C114.15 7.58 114.28 8.23 114.41 9.01C114.53 9.78 114.65 10.75 114.75 11.92C114.85 13.08 114.92 14.46 114.97 16.04C115.02 17.63 115.05 19.49 115.05 21.62V46.05C115.05 48.18 115.02 50.04 114.97 51.63C114.92 53.22 114.85 54.59 114.75 55.74C114.65 56.89 114.53 57.85 114.41 58.63C114.28 59.4 114.15 60.05 114 60.58ZM136.14 6.9H133.74V7.06C133.89 7.58 134.03 8.23 134.17 9.01C134.31 9.78 134.43 10.75 134.53 11.92C134.63 13.08 134.7 14.46 134.75 16.04C134.8 17.63 134.83 19.49 134.83 21.62V46.05C134.83 48.18 134.8 50.04 134.75 51.63C134.7 53.22 134.63 54.59 134.53 55.74C134.43 56.89 134.31 57.85 134.17 58.63C134.03 59.4 133.89 60.05 133.74 60.58V60.73H140.42V60.58C140.27 60.05 140.13 59.4 140.01 58.63C139.88 57.85 139.77 56.89 139.67 55.74C139.57 54.59 139.49 53.22 139.44 51.63C139.39 50.04 139.37 48.18 139.37 46.05V20.38L178.03 61.48H179.34V21.62C179.34 19.49 179.37 17.63 179.42 16.04C179.47 14.46 179.54 13.08 179.64 11.92C179.74 10.75 179.86 9.78 179.98 9.01C180.11 8.23 180.24 7.58 180.39 7.06V6.9H173.71V7.06C173.86 7.58 174.01 8.23 174.14 9.01C174.28 9.78 174.4 10.75 174.5 11.92C174.6 13.08 174.68 14.46 174.73 16.04C174.78 17.63 174.8 19.49 174.8 21.62V48.04L136.14 6.9ZM204.98 10.21V46.05C204.98 48.18 204.95 50.04 204.9 51.63C204.85 53.22 204.78 54.59 204.68 55.74C204.58 56.89 204.47 57.85 204.34 58.63C204.22 59.4 204.08 60.05 203.93 60.58V60.73H212.9V60.58C212.75 60.05 212.61 59.4 212.47 58.63C212.33 57.85 212.22 56.89 212.13 55.74C212.04 54.59 211.97 53.22 211.91 51.63C211.84 50.04 211.81 48.18 211.81 46.05V10.21C214.76 10.21 217.43 10.34 219.81 10.6C222.18 10.86 224.24 11.15 225.96 11.45C227.96 11.82 229.77 12.23 231.37 12.69L230.28 6.6C229.98 6.63 229.53 6.65 228.93 6.68C228.33 6.7 227.66 6.73 226.92 6.75C226.18 6.78 225.41 6.8 224.59 6.81C223.78 6.82 223.01 6.84 222.28 6.85C221.56 6.86 220.91 6.87 220.35 6.89C219.79 6.9 219.38 6.9 219.13 6.9H197.7C197.45 6.9 197.04 6.9 196.48 6.89C195.92 6.87 195.27 6.86 194.55 6.85C193.82 6.84 193.05 6.82 192.24 6.81C191.42 6.8 190.65 6.78 189.91 6.75C189.17 6.73 188.5 6.7 187.9 6.68C187.3 6.65 186.85 6.63 186.55 6.6L185.46 12.69C187.04 12.23 188.83 11.82 190.83 11.45C192.56 11.15 194.61 10.86 196.98 10.6C199.36 10.34 202.03 10.21 204.98 10.21ZM236.73 6.9V7.06C236.88 7.58 237.03 8.23 237.17 9.01C237.3 9.78 237.42 10.75 237.52 11.92C237.62 13.08 237.7 14.46 237.75 16.04C237.8 17.63 237.82 19.49 237.82 21.62V46.05C237.82 48.18 237.8 50.04 237.75 51.63C237.7 53.22 237.62 54.59 237.52 55.74C237.42 56.89 237.3 57.85 237.17 58.63C237.03 59.4 236.88 60.05 236.73 60.58V60.73H252.95C253.2 60.73 253.61 60.74 254.17 60.75C254.73 60.76 255.38 60.77 256.1 60.79C256.83 60.8 257.6 60.81 258.41 60.82C259.22 60.84 260 60.86 260.74 60.88C261.48 60.91 262.15 60.93 262.75 60.96C263.35 60.98 263.8 61.01 264.1 61.03L265.19 54.95C263.41 55.43 261.44 55.84 259.29 56.19C257.44 56.51 255.28 56.8 252.8 57.05C250.32 57.3 247.61 57.43 244.65 57.43V33.89C246.33 33.89 248.08 33.96 249.91 34.1C251.74 34.24 253.42 34.39 254.98 34.57C256.78 34.77 258.54 34.98 260.27 35.21L261.43 29.76C260.13 29.96 258.63 30.14 256.93 30.29C255.48 30.41 253.71 30.54 251.64 30.66C249.56 30.79 247.23 30.86 244.65 30.89V10.4C245.58 10.35 246.49 10.3 247.39 10.25C248.17 10.2 248.98 10.15 249.82 10.11C250.65 10.08 251.37 10.06 251.97 10.06C253.75 10.06 255.32 10.13 256.68 10.26C258.05 10.4 259.21 10.55 260.16 10.7C261.26 10.87 262.22 11.07 263.05 11.3L264.89 6.3C264.23 6.43 263 6.53 261.17 6.6C259.34 6.68 257.14 6.74 254.56 6.77C251.99 6.81 249.15 6.84 246.06 6.87C242.97 6.89 239.86 6.9 236.73 6.9ZM282.34 46.05V37.61C283.06 37.73 283.78 37.82 284.5 37.87C285.21 37.92 285.92 37.95 286.62 37.95C287.22 37.95 287.81 37.93 288.38 37.89C288.96 37.85 289.53 37.81 290.11 37.76L303.4 56.49C303.95 57.26 304.43 58.05 304.84 58.83C305.25 59.62 305.5 60.25 305.57 60.73H316.42V60.58C315.92 60.4 315.43 60.16 314.96 59.85C314.48 59.54 313.99 59.13 313.47 58.65C312.96 58.16 312.42 57.58 311.86 56.9C311.3 56.23 310.69 55.43 310.04 54.5L296.87 35.99C298.32 35.34 299.63 34.54 300.81 33.57C301.98 32.61 302.99 31.5 303.83 30.25C304.67 29 305.32 27.61 305.78 26.07C306.24 24.53 306.47 22.86 306.47 21.06C306.47 18.75 306.06 16.7 305.22 14.88C304.38 13.07 303.21 11.53 301.71 10.28C300.21 9.03 298.44 8.08 296.4 7.43C294.36 6.78 292.14 6.45 289.73 6.45C287.16 6.45 285.04 6.57 283.37 6.81C281.71 7.05 280.39 7.17 279.41 7.17C278.79 7.17 278.18 7.16 277.59 7.15C277 7.14 276.47 7.11 276 7.06L274.42 6.9V7.06C274.57 7.58 274.71 8.24 274.85 9.03C274.99 9.81 275.1 10.78 275.19 11.93C275.28 13.09 275.35 14.46 275.41 16.04C275.48 17.63 275.51 19.49 275.51 21.62V46.05C275.51 48.21 275.48 50.07 275.41 51.65C275.35 53.22 275.28 54.59 275.19 55.74C275.1 56.89 274.99 57.85 274.85 58.63C274.71 59.4 274.57 60.05 274.42 60.58V60.73H283.43V60.58C283.28 60.05 283.13 59.4 283 58.63C282.86 57.85 282.75 56.89 282.66 55.74C282.57 54.59 282.5 53.22 282.43 51.63C282.37 50.04 282.34 48.18 282.34 46.05ZM282.34 34.68V9.83C282.86 9.63 283.64 9.44 284.67 9.27C285.69 9.09 287.07 9.01 288.8 9.01C290.5 9.01 291.99 9.3 293.26 9.89C294.54 10.48 295.6 11.3 296.43 12.37C297.27 13.43 297.9 14.72 298.33 16.25C298.75 17.78 298.97 19.48 298.97 21.36C298.97 23.66 298.67 25.67 298.07 27.38C297.47 29.09 296.62 30.53 295.53 31.68C294.44 32.83 293.12 33.69 291.57 34.25C290.02 34.81 288.31 35.09 286.43 35.09C285.78 35.09 285.1 35.06 284.4 35C283.7 34.94 283.01 34.83 282.34 34.68ZM321.94 6.9H319.54V7.06C319.69 7.58 319.83 8.23 319.97 9.01C320.11 9.78 320.22 10.75 320.32 11.92C320.42 13.08 320.5 14.46 320.55 16.04C320.6 17.63 320.62 19.49 320.62 21.62V46.05C320.62 48.18 320.6 50.04 320.55 51.63C320.5 53.22 320.42 54.59 320.32 55.74C320.22 56.89 320.11 57.85 319.97 58.63C319.83 59.4 319.69 60.05 319.54 60.58V60.73H326.22V60.58C326.07 60.05 325.93 59.4 325.8 58.63C325.68 57.85 325.57 56.89 325.47 55.74C325.37 54.59 325.29 53.22 325.24 51.63C325.19 50.04 325.17 48.18 325.17 46.05V20.38L363.83 61.48H365.14V21.62C365.14 19.49 365.17 17.63 365.22 16.04C365.27 14.46 365.34 13.08 365.44 11.92C365.54 10.75 365.65 9.78 365.78 9.01C365.9 8.23 366.04 7.58 366.19 7.06V6.9H359.51V7.06C359.66 7.58 359.81 8.23 359.94 9.01C360.08 9.78 360.2 10.75 360.3 11.92C360.4 13.08 360.47 14.46 360.52 16.04C360.57 17.63 360.6 19.49 360.6 21.62V48.04L321.94 6.9ZM401.17 6C398.4 6 395.8 6.36 393.39 7.07C390.97 7.79 388.77 8.78 386.78 10.06C384.79 11.33 383.03 12.84 381.49 14.58C379.95 16.32 378.65 18.23 377.58 20.3C376.52 22.38 375.71 24.57 375.16 26.87C374.61 29.18 374.34 31.52 374.34 33.89C374.34 38.1 375.06 41.92 376.51 45.36C377.97 48.8 379.98 51.75 382.56 54.2C385.13 56.65 388.19 58.55 391.73 59.89C395.28 61.22 399.14 61.89 403.31 61.89C406.09 61.89 408.68 61.54 411.08 60.82C413.49 60.11 415.68 59.12 417.67 57.86C419.66 56.59 421.43 55.09 422.98 53.35C424.53 51.62 425.84 49.72 426.9 47.67C427.97 45.62 428.78 43.44 429.33 41.14C429.88 38.83 430.15 36.49 430.15 34.12C430.15 29.94 429.43 26.12 427.97 22.67C426.52 19.22 424.51 16.26 421.93 13.79C419.35 11.33 416.3 9.41 412.75 8.05C409.21 6.69 405.35 6 401.17 6ZM403.31 58.52C399.84 58.52 396.78 57.82 394.16 56.43C391.53 55.04 389.34 53.14 387.59 50.71C385.84 48.28 384.52 45.41 383.65 42.09C382.77 38.78 382.33 35.21 382.33 31.38C382.33 27.9 382.8 24.8 383.72 22.07C384.65 19.34 385.94 17.04 387.61 15.16C389.27 13.29 391.25 11.85 393.56 10.86C395.86 9.88 398.4 9.38 401.17 9.38C404.65 9.38 407.7 10.06 410.31 11.43C412.93 12.79 415.11 14.68 416.86 17.1C418.62 19.51 419.94 22.36 420.82 25.65C421.71 28.94 422.16 32.52 422.16 36.37C422.16 39.85 421.69 42.96 420.77 45.7C419.84 48.44 418.55 50.76 416.88 52.66C415.22 54.56 413.24 56.01 410.93 57.01C408.63 58.01 406.09 58.52 403.31 58.52Z" fill="#0580C7"/>
</g>
<defs>
<linearGradient id="paint0_linear_3_12" x1="-0.00625017" y1="88.5688" x2="88.5563" y2="0.00624603" gradientUnits="userSpaceOnUse">
<stop offset="0.05" stop-color="#1FD2FD"/>
<stop offset="0.95" stop-color="#18358C"/>
</linearGradient>
<clipPath id="clip0_3_12">
<rect width="88.55" height="88.575" fill="white"/>
</clipPath>
<clipPath id="clip1_3_12">
<rect width="316.15" height="55.89" fill="white" transform="translate(114 6)"/>
</clipPath>
</defs>
</svg>
